<svg width="24" height="25" viewBox="0 0 24 25" fill="none" xmlns="http://www.w3.org/2000/svg">
<g clip-path="url(#clip0_1015_616)">
<path d="M22.5965 17.4823C21.6908 16.5092 19.9963 15.0453 19.9963 10.25C19.9963 6.60781 17.4426 3.69219 13.9991 2.97688V2C13.9991 1.17172 13.3279 0.5 12.5 0.5C11.6722 0.5 11.001 1.17172 11.001 2V2.97688C7.55754 3.69219 5.00379 6.60781 5.00379 10.25C5.00379 15.0453 3.30925 16.5092 2.40363 17.4823C2.12238 17.7847 1.99769 18.1461 2.00003 18.5C2.00519 19.2687 2.60847 20 3.50472 20H21.4954C22.3916 20 22.9954 19.2687 23.0001 18.5C23.0024 18.1461 22.8777 17.7842 22.5965 17.4823ZM5.16551 17.75C6.16019 16.4389 7.2477 14.2658 7.25285 10.2772C7.25285 10.2678 7.25004 10.2594 7.25004 10.25C7.25004 7.35031 9.60036 5 12.5 5C15.3997 5 17.7501 7.35031 17.7501 10.25C17.7501 10.2594 17.7472 10.2678 17.7472 10.2772C17.7524 14.2662 18.8399 16.4394 19.8346 17.75H5.16551ZM12.5 24.5C14.1557 24.5 15.4986 23.157 15.4986 21.5H9.50145C9.50145 23.157 10.8444 24.5 12.5 24.5Z" fill="#F4F4F5"/>
</g>
<defs>
<clipPath id="clip0_1015_616">
<rect width="24" height="24" fill="white" transform="translate(0 0.5)"/>
</clipPath>
</defs>
</svg>
