<svg width="12" height="13" viewBox="0 0 12 13" fill="none" xmlns="http://www.w3.org/2000/svg">
<path d="M6 0.5C2.688 0.5 0 3.188 0 6.5C0 9.812 2.688 12.5 6 12.5C9.312 12.5 12 9.812 12 6.5C12 3.188 9.312 0.5 6 0.5ZM8.166 4.304C8.808 4.304 9.324 4.82 9.324 5.462C9.324 6.104 8.808 6.62 8.166 6.62C7.524 6.62 7.008 6.104 7.008 5.462C7.002 4.82 7.524 4.304 8.166 4.304ZM4.566 3.356C5.346 3.356 5.982 3.992 5.982 4.772C5.982 5.552 5.346 6.188 4.566 6.188C3.786 6.188 3.15 5.552 3.15 4.772C3.15 3.986 3.78 3.356 4.566 3.356ZM4.566 8.834V11.084C3.126 10.634 1.986 9.524 1.482 8.108C2.112 7.436 3.684 7.094 4.566 7.094C4.884 7.094 5.286 7.142 5.706 7.226C4.722 7.748 4.566 8.438 4.566 8.834ZM6 11.3C5.838 11.3 5.682 11.294 5.526 11.276V8.834C5.526 7.982 7.29 7.556 8.166 7.556C8.808 7.556 9.918 7.79 10.47 8.246C9.768 10.028 8.034 11.3 6 11.3Z" fill="#F4F4F5"/>
</svg>
