<svg width="12" height="13" viewBox="0 0 12 13" fill="none" xmlns="http://www.w3.org/2000/svg">
<g clip-path="url(#clip0_1015_612)">
<path d="M11.8359 10.8758L9.49922 8.53906C9.39375 8.43359 9.25078 8.375 9.10078 8.375H8.71875C9.36563 7.54766 9.75 6.50703 9.75 5.375C9.75 2.68203 7.56797 0.5 4.875 0.5C2.18203 0.5 0 2.68203 0 5.375C0 8.06797 2.18203 10.25 4.875 10.25C6.00703 10.25 7.04766 9.86563 7.875 9.21875V9.60078C7.875 9.75078 7.93359 9.89375 8.03906 9.99922L10.3758 12.3359C10.5961 12.5562 10.9523 12.5562 11.1703 12.3359L11.8336 11.6727C12.0539 11.4523 12.0539 11.0961 11.8359 10.8758ZM4.875 8.375C3.21797 8.375 1.875 7.03438 1.875 5.375C1.875 3.71797 3.21562 2.375 4.875 2.375C6.53203 2.375 7.875 3.71562 7.875 5.375C7.875 7.03203 6.53438 8.375 4.875 8.375Z" fill="#F4F4F5"/>
</g>
<defs>
<clipPath id="clip0_1015_612">
<rect width="12" height="12" fill="white" transform="translate(0 0.5)"/>
</clipPath>
</defs>
</svg>
